<svg width="177" height="149" viewBox="0 0 177 149" fill="none" xmlns="http://www.w3.org/2000/svg" id="fully-responsive">
  <defs>
    <style type="text/css">
      .small-wheel,
      .big-wheel {
        animation: wheel 5s linear infinite;
        transform-origin: center;
        transform-box: fill-box;
      }

      @keyframes wheel {
        from { transform: rotateZ(0deg); }
        to { transform: rotateZ(360deg); }
      }
    </style>
  </defs>
<g class="big-wheel">
  <path d="M169.059 115.429C171.099 115.813 173.072 114.482 173.465 112.442L176.626 95.832C176.817 94.855 176.607 93.839 176.054 93.0154C175.496 92.1906 174.625 91.6147 173.641 91.4224L167.238 90.2082C166.932 86.6929 166.204 83.2438 165.083 79.8902L170.495 76.2169C172.212 75.0475 172.661 72.7099 171.493 70.9954L161.988 57.0053C161.423 56.1758 160.553 55.6106 159.575 55.4253C158.598 55.2377 157.583 55.4489 156.758 56.0094L151.355 59.6827C148.653 57.403 145.703 55.4666 142.552 53.8925L143.768 47.478C144.161 45.4425 142.828 43.4695 140.779 43.0813L124.169 39.9095C123.191 39.723 122.177 39.9343 121.351 40.4936C120.528 41.0553 119.952 41.9202 119.782 42.8984L118.553 49.3129C115.038 49.6197 111.591 50.3324 108.237 51.4581L104.56 46.0502C103.995 45.2266 103.133 44.6566 102.156 44.4702C101.179 44.2837 100.164 44.495 99.3395 45.0543L85.3482 54.5627C84.5246 55.1232 83.9535 55.9858 83.7682 56.9676C83.5806 57.9446 83.7906 58.9594 84.3511 59.783L88.0292 65.191C85.7494 67.8967 83.8107 70.8432 82.2342 73.9938L75.8197 72.7678C74.8427 72.5849 73.8279 72.7914 73.0042 73.3519C72.1806 73.9124 71.6095 74.7785 71.4242 75.7614L68.2583 92.3723C67.8665 94.4125 69.2058 96.3843 71.2472 96.7678L77.6617 97.9938C77.9638 101.502 78.6812 104.951 79.8058 108.312L74.399 111.979C73.5683 112.544 72.9995 113.407 72.8166 114.393C72.6314 115.37 72.8379 116.386 73.3984 117.212L82.9056 131.199C83.4673 132.023 84.3334 132.6 85.3105 132.779C86.2934 132.962 87.3023 132.752 88.1319 132.195L93.5327 128.518C96.2349 130.799 99.1849 132.732 102.338 134.314L101.124 140.722C100.73 142.762 102.062 144.734 104.109 145.128L120.72 148.29C120.95 148.338 121.187 148.366 121.43 148.366C123.193 148.366 124.774 147.103 125.108 145.3L126.334 138.882C129.851 138.585 133.299 137.868 136.653 136.745L140.332 142.159C140.897 142.981 141.758 143.548 142.735 143.728C143.711 143.919 144.727 143.709 145.551 143.154L159.538 133.64C161.262 132.473 161.705 130.135 160.535 128.42L156.868 123.016C159.148 120.305 161.082 117.365 162.662 114.202L169.059 115.429ZM156.988 108.513C155.204 112.804 152.639 116.693 149.383 120.065C148.156 121.348 147.984 123.324 148.979 124.799L152.199 129.532L144.439 134.811L141.219 130.077C140.212 128.602 138.317 128.037 136.671 128.708C132.329 130.5 127.782 131.447 123.133 131.525C121.351 131.564 119.838 132.827 119.494 134.582L118.43 140.197L109.208 138.444L110.278 132.819C110.605 131.067 109.664 129.322 108.017 128.642C103.728 126.86 99.8469 124.302 96.4768 121.045C95.1918 119.799 93.2188 119.639 91.7485 120.644L87.0108 123.863L81.7315 116.083L86.4704 112.864C87.9454 111.867 88.5094 109.971 87.8309 108.322C86.0491 103.992 85.1004 99.4334 85.019 94.7866C84.9907 93.0036 83.7092 91.4802 81.9628 91.1545L76.3496 90.0831L78.1066 80.8578L83.7257 81.9305C85.4733 82.2656 87.2162 81.3251 87.9017 79.6802C89.6894 75.3885 92.2477 71.4993 95.5069 68.1268C96.7341 66.8477 96.9075 64.8736 95.9116 63.4033L92.6914 58.6656L100.451 53.3863L103.669 58.1251C104.677 59.5895 106.573 60.1606 108.219 59.4845C112.559 57.698 117.109 56.7552 121.756 56.6678C123.54 56.6395 125.052 55.3651 125.386 53.6128L126.457 47.9996L135.682 49.7625L134.611 55.3769C134.285 57.1245 135.223 58.8674 136.862 59.5541C141.162 61.3406 145.052 63.8977 148.413 67.1604C149.697 68.3959 151.67 68.5634 153.136 67.5616L157.88 64.3426L163.16 72.1117L158.427 75.3248C156.951 76.3314 156.376 78.2276 157.069 79.8714C158.848 84.2008 159.789 88.7615 159.873 93.4166C159.901 95.2007 161.186 96.7123 162.93 97.038L168.544 98.1094L166.782 107.333L161.167 106.272C159.411 105.927 157.678 106.865 156.988 108.513Z" fill="#151515"/>
  <path d="M127.503 67.551C120.413 66.1952 113.227 67.689 107.25 71.7471C101.282 75.798 97.2509 81.9387 95.8892 89.027C94.5451 96.1259 96.0331 103.32 100.086 109.29C104.147 115.258 110.289 119.299 117.376 120.64C119.082 120.965 120.777 121.129 122.456 121.129C135.165 121.118 146.526 112.095 148.989 99.1632C151.775 84.5265 142.14 70.3429 127.503 67.551ZM141.602 97.7543C140.625 102.871 137.712 107.306 133.404 110.237C129.093 113.159 123.9 114.232 118.784 113.255C113.667 112.279 109.242 109.375 106.312 105.067C103.38 100.756 102.307 95.5606 103.285 90.4465C104.265 85.3312 107.176 80.8944 111.485 77.9704C114.751 75.7414 118.536 74.5885 122.407 74.5885C123.631 74.5885 124.869 74.7041 126.107 74.939C136.661 76.9532 143.614 87.1885 141.602 97.7543Z" fill="#151515"/>
</g>
<g class="small-wheel">
  <path d="M2.14406 53.4205C2.36472 54.9675 3.79606 56.0401 5.34304 55.8147L10.1999 55.1197C11.2737 57.5387 12.6248 59.8184 14.2426 61.9271L11.2961 65.8636C10.8466 66.4618 10.6554 67.2147 10.7592 67.9569C10.8654 68.6991 11.2631 69.3694 11.8614 69.8154L22.0389 77.4358C23.2885 78.3751 25.0632 78.1191 25.9966 76.8706L28.9407 72.9353C31.4222 73.897 33.9887 74.5543 36.6095 74.9036L37.3092 79.7545C37.4154 80.5038 37.8131 81.1741 38.4125 81.6142C38.9058 81.9871 39.4993 82.1877 40.107 82.1877C40.2415 82.1877 40.3761 82.1676 40.5106 82.1488L53.0929 80.3504C54.634 80.1286 55.7066 78.6973 55.486 77.1503L54.7933 72.2934C57.2111 71.2208 59.4873 69.865 61.5995 68.246L65.5325 71.196C66.7821 72.1306 68.5545 71.8769 69.4878 70.6261L77.1071 60.4521C78.0417 59.2013 77.7891 57.4301 76.5419 56.4956L72.6054 53.5491C73.5671 51.0676 74.2244 48.5011 74.5748 45.8756L79.4317 45.1817C80.1739 45.0708 80.8442 44.6743 81.289 44.0749C81.7398 43.4766 81.9309 42.7191 81.8247 41.9816L80.0205 29.398C79.7999 27.8511 78.3662 26.7832 76.8192 26.9991L71.9623 27.6977C70.8897 25.2739 69.5398 22.9989 67.9208 20.8867L70.8649 16.9597C71.3157 16.3555 71.5068 15.6038 71.4042 14.8616C71.2944 14.1194 70.8944 13.4492 70.2973 13.0031L60.1222 5.38268C59.5251 4.93192 58.7723 4.74076 58.0312 4.84696C57.289 4.9567 56.6176 5.34964 56.1668 5.95262L53.2239 9.88084C50.7447 8.92268 48.1759 8.26542 45.5515 7.91732L44.8518 3.06044C44.6311 1.517 43.2045 0.4491 41.6528 0.66386L29.0705 2.47044C28.3283 2.57546 27.6616 2.97312 27.2108 3.57728C26.7624 4.17554 26.5712 4.92956 26.6751 5.66942L27.3701 10.5263C24.9523 11.5989 22.6761 12.9547 20.5639 14.5737L16.6309 11.6237C16.0327 11.1729 15.2798 10.9818 14.5329 11.0868C13.7907 11.1918 13.1204 11.5895 12.6756 12.1936L5.05394 22.3676C4.60436 22.967 4.4132 23.7187 4.51822 24.4609C4.62442 25.2079 5.02208 25.8734 5.62034 26.3241L9.5521 29.2694C8.59394 31.751 7.93786 34.3139 7.58858 36.9382L2.7317 37.6368C1.98948 37.743 1.31806 38.1407 0.867303 38.7389C0.416543 39.3431 0.225383 40.0947 0.336303 40.837L2.14406 53.4205ZM10.5881 42.2223C11.9109 42.0299 12.921 40.9396 13.0071 39.6015C13.2278 36.1146 14.0939 32.7245 15.589 29.5349C16.1542 28.3231 15.7896 26.8764 14.7229 26.0763L11.2737 23.4945L15.5076 17.847L18.9508 20.4289C20.0234 21.2277 21.5079 21.1711 22.5156 20.2849C25.16 17.9568 28.1678 16.1702 31.4529 14.9773C32.7084 14.5171 33.4754 13.2427 33.2878 11.9163L32.673 7.66362L39.6633 6.66298L40.271 10.9157C40.4634 12.2432 41.5561 13.2486 42.8906 13.3347C46.3775 13.5554 49.7689 14.4227 52.9596 15.9165C54.1773 16.4818 55.6181 16.1171 56.4182 15.0492L59 11.6001L64.6522 15.8351L62.0704 19.2784C61.2644 20.351 61.3281 21.8413 62.2096 22.842C64.5425 25.4863 66.3243 28.4942 67.5208 31.7805C67.9786 33.0395 69.2495 33.7959 70.577 33.6154L74.8297 33.0006L75.8351 39.9897L71.5823 40.5974C70.2572 40.7898 69.2495 41.8813 69.1645 43.217C68.9439 46.7086 68.0777 50.0952 66.5827 53.2895C66.0175 54.5025 66.3809 55.9433 67.4488 56.7481L70.8968 59.3252L66.6641 64.9821L63.2209 62.3956C62.1482 61.5955 60.6626 61.6533 59.6561 62.5395C57.0117 64.8677 54.0086 66.653 50.7199 67.846C49.4644 68.3062 48.6974 69.5806 48.8886 70.9022L49.4963 75.1584L42.5095 76.1614L41.9018 71.9087C41.7095 70.5812 40.6168 69.5723 39.281 69.4897C35.7941 69.2655 32.4016 68.4029 29.2133 66.9079C28.825 66.7309 28.4179 66.6436 28.0156 66.6436C27.1494 66.6436 26.301 67.0424 25.7547 67.774L23.1728 71.2184L17.5206 66.9881L20.1025 63.5449C20.9013 62.4723 20.8447 60.9831 19.9644 59.9813C17.6316 57.3334 15.8439 54.3291 14.6521 51.044C14.1919 49.7837 12.9139 49.0226 11.5923 49.2091L7.3396 49.8227L6.33778 42.8347L10.5881 42.2223Z" fill="#151515"/>
  <path d="M41.0687 61.7265C42.0233 61.7265 42.9957 61.6545 43.9692 61.5153C55.0564 59.9246 62.7819 49.6079 61.1877 38.5242C59.5971 27.4357 49.2803 19.7138 38.1966 21.2997C27.1093 22.8951 19.3874 33.2071 20.978 44.2955C22.4294 54.4081 31.1355 61.7265 41.0687 61.7265ZM38.9955 26.8941C39.6987 26.7938 40.4008 26.7454 41.09 26.7454C48.2585 26.7454 54.542 32.0247 55.5933 39.3242C56.7438 47.3281 51.1672 54.7716 43.1644 55.9162C35.1616 57.0655 27.7217 51.4947 26.5736 43.492C25.4231 35.4927 30.9974 28.0446 38.9955 26.8941Z" fill="#151515"/>
</g>
</svg>
