<svg id="twitter" xmlns="http://www.w3.org/2000/svg" xmlns:xlink="http://www.w3.org/1999/xlink" x="0px" y="0px"
	 width="30px" height="30px" viewBox="0 0 30 30" enable-background="new 0 0 30 30" xml:space="preserve">
<path d="M4.861,21.371c1.841,1.181,4.027,1.869,6.377,1.869c7.725,0,12.088-6.523,11.827-12.376
	c0.813-0.586,1.518-1.318,2.074-2.153c-0.746,0.33-1.547,0.555-2.389,0.654c0.859-0.514,1.518-1.329,1.828-2.302
	c-0.803,0.477-1.693,0.823-2.641,1.011c-0.76-0.81-1.84-1.314-3.037-1.314c-2.686,0-4.659,2.506-4.052,5.109
	c-3.458-0.174-6.524-1.83-8.575-4.348c-1.09,1.87-0.565,4.316,1.287,5.555c-0.682-0.021-1.324-0.209-1.885-0.521
	c-0.045,1.929,1.336,3.73,3.337,4.133c-0.586,0.159-1.228,0.195-1.878,0.071c0.528,1.652,2.064,2.855,3.886,2.889
	C9.271,21.02,7.068,21.632,4.861,21.371z"/>
</svg>
