<svg id="date" xmlns="http://www.w3.org/2000/svg" xmlns:xlink="http://www.w3.org/1999/xlink" x="0px" y="0px"
	 width="30px" height="30px" viewBox="0 0 30 30" enable-background="new 0 0 30 30" xml:space="preserve">
<g>
	<path d="M21.814,5.267h-1.596v0.929c0,0.552-0.539,1.006-1.203,1.006s-1.205-0.454-1.205-1.006V5.267h-5.619v0.929
		c0,0.552-0.546,1.006-1.21,1.006S9.779,6.747,9.779,6.195V5.267H8.185c-1.587,0-2.876,1.283-2.876,2.873h19.383
		C24.691,6.55,23.404,5.267,21.814,5.267z"/>
	<path d="M5.309,9.253v17.91h19.383V9.253H5.309z M19.005,13.313h1.134v9.787h-1.284v-8.553h-0.031l-1.696,0.919l-0.259-1.008
		L19.005,13.313z M9.445,21.579c0.375,0.24,1.248,0.621,2.164,0.621c1.7,0,2.23-1.088,2.216-1.899
		c-0.017-1.37-1.251-1.957-2.53-1.957h-0.737v-0.993h0.737c0.966,0,2.18-0.497,2.18-1.659c0-0.78-0.495-1.473-1.712-1.473
		c-0.781,0-1.539,0.348-1.958,0.648L9.458,13.9c0.511-0.375,1.506-0.75,2.563-0.75c1.924,0,2.797,1.143,2.797,2.332
		c0,1.011-0.597,1.868-1.81,2.305v0.03c1.213,0.24,2.188,1.145,2.188,2.515c0,1.566-1.22,2.934-3.568,2.934
		c-1.103,0-2.064-0.346-2.544-0.658L9.445,21.579z"/>
	<path d="M10.298,6.195c0,0.261,0.316,0.482,0.684,0.482c0.375,0,0.687-0.222,0.687-0.482V3.322c0-0.263-0.312-0.485-0.687-0.485
		c-0.367,0-0.684,0.223-0.684,0.485V6.195z"/>
	<path d="M18.333,6.195c0,0.261,0.313,0.482,0.683,0.482c0.369,0,0.687-0.222,0.687-0.482V3.322c0-0.263-0.317-0.485-0.687-0.485
		c-0.37,0-0.683,0.223-0.683,0.485V6.195z"/>
</g>
</svg>
