<svg id="services" xmlns="http://www.w3.org/2000/svg" xmlns:xlink="http://www.w3.org/1999/xlink" x="0px" y="0px"
	 width="150px" height="150px" viewBox="0 0 150 150" enable-background="new 0 0 150 150" xml:space="preserve">
<g>
	<path d="M64.724,21.991h-7.279c-0.534,0-0.967,0.434-0.967,0.967c0,0.534,0.433,0.968,0.967,0.968h7.279
		c0.534,0,0.967-0.434,0.967-0.968C65.69,22.424,65.258,21.991,64.724,21.991z"/>
	<circle cx="54.192" cy="22.958" r="0.754"/>
	<path d="M60.984,131.781c3.26,0,5.91-2.651,5.91-5.908c0-3.26-2.65-5.911-5.91-5.911c-3.259,0-5.91,2.651-5.91,5.911
		C55.074,129.13,57.726,131.781,60.984,131.781z M60.984,122.061c2.104,0,3.814,1.711,3.814,3.813s-1.711,3.811-3.814,3.811
		c-2.102,0-3.813-1.707-3.813-3.811S58.883,122.061,60.984,122.061z"/>
	<g>
		<path d="M96.455,86.882v-0.003V86.882z"/>
		<path d="M92.232,117.716H29.756l0.085-89.602h62.476l-0.023,25.699h4.193l0.029-31.14c0-4.984-4.055-9.04-9.039-9.04H34.691
			c-4.984,0-9.039,4.056-9.039,9.04l-0.1,104.653c0,4.986,4.056,9.041,9.04,9.041h52.785c4.982,0,9.038-4.055,9.038-9.041
			l0.039-40.444l-4.192-0.026L92.232,117.716z M29.847,22.673c0-2.672,2.173-4.845,4.845-4.845h52.785
			c2.672,0,4.847,2.173,4.847,4.845l-0.005,3.344H29.843L29.847,22.673z M92.223,127.326c0,2.672-2.173,4.845-4.845,4.845H34.593
			c-2.673,0-4.846-2.173-4.846-4.845l0.007-7.516H92.23L92.223,127.326z"/>
		<path d="M122.352,56.831H91.253h-6.854v-5.848c0-0.817-0.473-1.559-1.213-1.902c-0.737-0.343-1.612-0.227-2.235,0.3L58.804,68.075
			c-0.473,0.398-0.745,0.984-0.745,1.604c0,0.617,0.272,1.203,0.745,1.602L80.95,89.98c0.386,0.326,0.866,0.494,1.353,0.494
			c0.299,0,0.602-0.063,0.883-0.193c0.741-0.344,1.215-1.088,1.215-1.902v-5.85h10.912h0.804h1.337h24.898
			c1.157,0,2.098-0.938,2.098-2.096V58.929C124.447,57.769,123.508,56.831,122.352,56.831z M120.254,78.335H95.586h-0.604h-4.726
			h-7.956c-1.158,0-2.098,0.938-2.098,2.099v3.431L63.407,69.679l16.797-14.183v3.433c0,1.157,0.938,2.096,2.098,2.096h37.952
			V78.335z"/>
	</g>
</g>
</svg>
