<svg id="dribbble" xmlns="http://www.w3.org/2000/svg" xmlns:xlink="http://www.w3.org/1999/xlink" x="0px" y="0px"
	 width="30px" height="30px" viewBox="0 0 30 30" enable-background="new 0 0 30 30" xml:space="preserve">
<g display="none">
	<path display="inline" d="M15,6.446c2.787,0,3.115,0.011,4.216,0.061c1.018,0.046,1.57,0.216,1.938,0.359
		c0.486,0.189,0.834,0.415,1.199,0.78s0.592,0.713,0.781,1.2c0.143,0.368,0.313,0.92,0.359,1.938
		c0.049,1.101,0.061,1.431,0.061,4.217c0,2.786-0.012,3.116-0.061,4.215c-0.047,1.018-0.217,1.57-0.359,1.938
		c-0.189,0.488-0.416,0.836-0.781,1.201c-0.365,0.363-0.713,0.59-1.199,0.779c-0.367,0.143-0.92,0.313-1.938,0.359
		c-1.102,0.051-1.43,0.061-4.216,0.061c-2.787,0-3.116-0.01-4.217-0.061c-1.018-0.047-1.57-0.217-1.938-0.359
		c-0.487-0.189-0.835-0.416-1.2-0.779c-0.364-0.365-0.591-0.713-0.78-1.201c-0.143-0.367-0.313-0.92-0.359-1.938
		c-0.05-1.1-0.061-1.43-0.061-4.215c0-2.786,0.011-3.116,0.061-4.217c0.047-1.018,0.217-1.57,0.359-1.938
		c0.189-0.487,0.416-0.834,0.78-1.2c0.365-0.365,0.713-0.591,1.2-0.78c0.367-0.143,0.92-0.313,1.938-0.359
		C11.884,6.457,12.214,6.446,15,6.446 M15,4.565c-2.834,0-3.189,0.012-4.303,0.063c-1.11,0.051-1.869,0.228-2.532,0.485
		C7.479,5.38,6.897,5.737,6.317,6.317S5.38,7.479,5.114,8.166c-0.258,0.664-0.435,1.422-0.485,2.533
		C4.578,11.811,4.566,12.167,4.566,15c0,2.833,0.012,3.188,0.063,4.301c0.051,1.111,0.228,1.869,0.485,2.533
		c0.267,0.686,0.623,1.268,1.203,1.848s1.162,0.938,1.849,1.203c0.663,0.258,1.422,0.436,2.532,0.486
		c1.113,0.051,1.469,0.063,4.303,0.063c2.833,0,3.189-0.012,4.302-0.063c1.109-0.051,1.869-0.229,2.531-0.486
		c0.688-0.266,1.27-0.623,1.85-1.203s0.936-1.162,1.203-1.848c0.258-0.664,0.434-1.422,0.484-2.533
		c0.051-1.113,0.063-1.469,0.063-4.301c0-2.834-0.012-3.189-0.063-4.302c-0.051-1.111-0.227-1.87-0.484-2.533
		c-0.268-0.687-0.623-1.269-1.203-1.849s-1.162-0.937-1.85-1.203c-0.662-0.258-1.422-0.435-2.531-0.485
		C18.189,4.578,17.834,4.565,15,4.565"/>
	<path display="inline" d="M15,9.642c-2.96,0-5.358,2.398-5.358,5.358c0,2.959,2.398,5.358,5.358,5.358
		c2.958,0,5.357-2.398,5.357-5.358C20.357,12.041,17.959,9.642,15,9.642 M15,18.478c-1.922,0-3.479-1.557-3.479-3.477
		c0-1.921,1.557-3.479,3.479-3.479c1.921,0,3.478,1.558,3.478,3.479C18.479,16.921,16.922,18.478,15,18.478"/>
	<path display="inline" d="M21.822,9.43c0,0.691-0.561,1.253-1.252,1.253s-1.252-0.562-1.252-1.253
		s0.561-1.252,1.252-1.252S21.822,8.739,21.822,9.43"/>
</g>
<path d="M14.999,2.868C8.3,2.868,2.868,8.3,2.868,15.001c0,6.699,5.432,12.131,12.131,12.131
	c6.701,0,12.133-5.432,12.133-12.131C27.132,8.3,21.7,2.868,14.999,2.868z M14.999,4.979c2.301,0,4.417,0.787,6.11,2.096
	c-1.218,1.57-2.899,2.813-5.041,3.719c-1.027-1.881-2.201-3.715-3.526-5.496C13.329,5.097,14.15,4.979,14.999,4.979z M10.479,6.068
	c1.347,1.762,2.538,3.577,3.576,5.44c-2.458,0.723-5.39,1.095-8.78,1.118C5.975,9.761,7.904,7.378,10.479,6.068z M4.979,15
	c0-0.087,0.012-0.172,0.014-0.258c3.89-0.006,7.246-0.453,10.058-1.338c0.235,0.48,0.462,0.963,0.678,1.448
	c-3.416,1.067-6.231,3.257-8.428,6.551C5.852,19.666,4.979,17.434,4.979,15z M14.999,25.021c-2.317,0-4.449-0.798-6.149-2.125
	c1.99-3.123,4.532-5.155,7.681-6.094c0.938,2.447,1.627,4.964,2.066,7.542C17.478,24.776,16.269,25.021,14.999,25.021z
	 M20.563,23.33c-0.443-2.378-1.092-4.703-1.94-6.972c1.896-0.268,3.983-0.199,6.267,0.198C24.446,19.373,22.839,21.807,20.563,23.33
	z M17.813,14.361c-0.246-0.569-0.502-1.137-0.775-1.698c2.335-1.012,4.211-2.385,5.609-4.126c1.364,1.611,2.221,3.658,2.347,5.898
	C22.39,14.009,19.996,13.985,17.813,14.361z"/>
</svg>
