<svg id="up" xmlns="http://www.w3.org/2000/svg" xmlns:xlink="http://www.w3.org/1999/xlink" x="0px" y="0px"
	 width="60px" height="60px" viewBox="0 0 60 60" enable-background="new 0 0 60 60" xml:space="preserve">
<path fill="#FFFFFF" d="M1.713,29.996c0,15.629,12.661,28.291,28.288,28.291c15.624,0,28.286-12.662,28.286-28.291
	c0-15.622-12.662-28.283-28.286-28.283C14.374,1.713,1.713,14.374,1.713,29.996z M32.633,14.324l14.172,17.869
	c1.182,1.49,0.939,3.671-0.568,4.867c-1.488,1.183-3.674,0.938-4.859-0.567L29.932,22.066L18.626,36.484
	c-1.183,1.506-3.356,1.771-4.869,0.582c-0.865-0.676-1.326-1.697-1.326-2.721c0-0.748,0.245-1.506,0.749-2.14L27.196,14.33
	c0.651-0.827,1.652-1.317,2.714-1.325C30.967,13.006,31.973,13.496,32.633,14.324z"/>
<path fill="#00897B" d="M32.633,14.324l14.172,17.869c1.182,1.49,0.939,3.671-0.568,4.867c-1.488,1.183-3.674,0.938-4.859-0.567
	L29.932,22.066L18.626,36.484c-1.183,1.506-3.356,1.771-4.869,0.582c-0.865-0.676-1.326-1.697-1.326-2.721
	c0-0.748,0.245-1.506,0.749-2.14L27.196,14.33c0.651-0.827,1.652-1.317,2.714-1.325C30.967,13.006,31.973,13.496,32.633,14.324z"/>
</svg>
