<svg id="search" xmlns="http://www.w3.org/2000/svg" xmlns:xlink="http://www.w3.org/1999/xlink" x="0px" y="0px"
	 width="150px" height="150px" viewBox="0 0 150 150" enable-background="new 0 0 150 150" xml:space="preserve">
<path d="M143.423,131.17l-35.455-35.471c7.258-9.657,11.631-21.63,11.631-34.641c0-31.895-25.951-57.854-57.855-57.854
	S3.889,29.164,3.889,61.059c0,31.912,25.951,57.862,57.855,57.862c12.297,0,23.689-3.891,33.051-10.461l35.681,35.66
	c1.782,1.783,4.135,2.675,6.465,2.675c2.366,0,4.683-0.892,6.485-2.675C147.008,140.519,147.008,134.738,143.423,131.17z
	 M19.581,61.059c0-23.251,18.922-42.152,42.163-42.152s42.16,18.901,42.16,42.152c0,23.235-18.919,42.136-42.16,42.136
	S19.581,84.291,19.581,61.059z"/>
</svg>
